<?xml version="1.0" encoding="UTF-8"?>
<svg xmlns="http://www.w3.org/2000/svg" width="24pt" height="24pt" viewBox="0 0 24 24">
<g id="surface1">
<path style="stroke:none;fill-rule:nonzero;fill:currentColor;fill-opacity:1;" d="M 22.902344 15.59375 C 22.226562 15.230469 21.414062 15.269531 20.773438 15.695312 L 17.425781 17.925781 C 17.320312 16.863281 16.417969 16.03125 15.328125 16.03125 L 11.8125 16.03125 L 11.355469 15.6875 C 10.441406 15.003906 9.308594 14.625 8.167969 14.625 C 7.203125 14.625 6.257812 14.886719 5.433594 15.382812 L 5.25 15.492188 L 5.25 14.859375 C 5.25 14.472656 4.933594 14.15625 4.546875 14.15625 L 0.703125 14.15625 C 0.316406 14.15625 0 14.472656 0 14.859375 L 0 23.296875 C 0 23.683594 0.316406 24 0.703125 24 L 4.546875 24 C 4.933594 24 5.25 23.683594 5.25 23.296875 L 5.25 23.0625 L 16.324219 23.0625 C 17.042969 23.0625 17.734375 22.847656 18.324219 22.4375 L 23.105469 19.128906 C 23.664062 18.742188 24 18.101562 24 17.421875 C 24 16.65625 23.578125 15.953125 22.902344 15.59375 Z M 3.84375 22.59375 L 1.40625 22.59375 L 1.40625 15.5625 L 3.84375 15.5625 Z M 22.304688 17.972656 L 17.523438 21.28125 C 17.171875 21.527344 16.753906 21.65625 16.324219 21.65625 L 5.25 21.65625 L 5.25 17.132812 L 6.15625 16.585938 C 6.765625 16.222656 7.460938 16.03125 8.167969 16.03125 C 9.007812 16.03125 9.839844 16.308594 10.511719 16.8125 L 11.15625 17.296875 C 11.277344 17.386719 11.425781 17.4375 11.578125 17.4375 L 15.328125 17.4375 C 15.714844 17.4375 16.03125 17.753906 16.03125 18.140625 C 16.03125 18.527344 15.714844 18.84375 15.328125 18.84375 L 10.171875 18.84375 C 9.785156 18.84375 9.46875 19.160156 9.46875 19.546875 C 9.46875 19.933594 9.785156 20.25 10.171875 20.25 L 15.699219 20.25 C 16.207031 20.25 16.703125 20.101562 17.128906 19.816406 L 21.554688 16.867188 C 21.855469 16.664062 22.132812 16.777344 22.242188 16.832031 C 22.347656 16.890625 22.59375 17.0625 22.59375 17.421875 C 22.59375 17.640625 22.484375 17.847656 22.304688 17.972656 Z M 22.304688 17.972656 "/>
<path style="stroke:none;fill-rule:nonzero;fill:currentColor;fill-opacity:1;" d="M 11.503906 12.449219 C 11.640625 12.585938 11.820312 12.65625 12 12.65625 C 12.179688 12.65625 12.359375 12.585938 12.496094 12.449219 L 19.527344 5.417969 C 19.730469 5.21875 19.789062 4.914062 19.679688 4.652344 C 19.675781 4.636719 19.667969 4.621094 19.660156 4.609375 L 19.660156 4.605469 L 17.550781 0.390625 C 17.429688 0.152344 17.1875 0 16.921875 0 L 7.078125 0 C 6.8125 0 6.570312 0.152344 6.449219 0.390625 L 4.339844 4.605469 L 4.339844 4.609375 C 4.332031 4.621094 4.324219 4.636719 4.320312 4.652344 C 4.210938 4.914062 4.269531 5.21875 4.472656 5.417969 Z M 12 9.730469 L 10.632812 5.625 L 13.367188 5.625 Z M 16.488281 1.40625 L 17.894531 4.21875 L 14.9375 4.21875 L 14.46875 1.40625 Z M 14.851562 5.625 L 17.332031 5.625 L 13.609375 9.351562 Z M 10.953125 1.40625 L 13.046875 1.40625 L 13.515625 4.21875 L 10.484375 4.21875 Z M 6.667969 5.625 L 9.148438 5.625 L 10.390625 9.351562 Z M 7.511719 1.40625 L 9.53125 1.40625 L 9.0625 4.21875 L 6.105469 4.21875 Z M 7.511719 1.40625 "/>
<path style="stroke:none;fill-rule:nonzero;fill:currentColor;fill-opacity:1;" d="M 21.671875 4.21875 C 21.792969 4.21875 21.914062 4.1875 22.023438 4.125 L 23.648438 3.1875 C 23.984375 2.992188 24.101562 2.5625 23.90625 2.226562 C 23.710938 1.890625 23.28125 1.773438 22.945312 1.96875 L 21.320312 2.90625 C 20.984375 3.101562 20.871094 3.53125 21.0625 3.867188 C 21.195312 4.09375 21.429688 4.21875 21.671875 4.21875 Z M 21.671875 4.21875 "/>
<path style="stroke:none;fill-rule:nonzero;fill:currentColor;fill-opacity:1;" d="M 21.320312 6.9375 L 22.945312 7.875 C 23.054688 7.9375 23.175781 7.96875 23.296875 7.96875 C 23.539062 7.96875 23.777344 7.84375 23.90625 7.617188 C 24.101562 7.28125 23.984375 6.851562 23.648438 6.65625 L 22.023438 5.71875 C 21.6875 5.523438 21.257812 5.640625 21.0625 5.976562 C 20.871094 6.3125 20.984375 6.742188 21.320312 6.9375 Z M 21.320312 6.9375 "/>
<path style="stroke:none;fill-rule:nonzero;fill:currentColor;fill-opacity:1;" d="M 0.351562 3.1875 L 1.976562 4.125 C 2.085938 4.1875 2.207031 4.21875 2.328125 4.21875 C 2.570312 4.21875 2.804688 4.09375 2.9375 3.867188 C 3.128906 3.53125 3.015625 3.101562 2.679688 2.90625 L 1.054688 1.96875 C 0.71875 1.773438 0.289062 1.890625 0.09375 2.226562 C -0.101562 2.5625 0.015625 2.992188 0.351562 3.1875 Z M 0.351562 3.1875 "/>
<path style="stroke:none;fill-rule:nonzero;fill:currentColor;fill-opacity:1;" d="M 0.703125 7.96875 C 0.824219 7.96875 0.945312 7.9375 1.054688 7.875 L 2.679688 6.9375 C 3.015625 6.742188 3.128906 6.3125 2.9375 5.976562 C 2.742188 5.640625 2.3125 5.523438 1.976562 5.71875 L 0.351562 6.65625 C 0.015625 6.851562 -0.101562 7.28125 0.09375 7.617188 C 0.222656 7.84375 0.460938 7.96875 0.703125 7.96875 Z M 0.703125 7.96875 "/>
</g>
</svg>
