<?xml version="1.0" encoding="UTF-8"?>
<svg xmlns="http://www.w3.org/2000/svg" width="24pt" height="24pt" viewBox="0 0 24 24">
<g id="surface1">
<path style="stroke:none;fill-rule:nonzero;fill:currentColor;fill-opacity:1;" d="M 14.847656 16.234375 C 15.78125 15.433594 16.371094 14.246094 16.371094 12.921875 L 16.371094 12.691406 C 16.371094 10.28125 14.410156 8.316406 12 8.316406 C 9.589844 8.316406 7.628906 10.28125 7.628906 12.691406 L 7.628906 12.921875 C 7.628906 14.246094 8.21875 15.433594 9.152344 16.234375 C 6.140625 17.160156 3.945312 19.964844 3.945312 23.277344 C 3.945312 23.65625 4.253906 23.96875 4.636719 23.96875 L 19.363281 23.96875 C 19.746094 23.96875 20.054688 23.65625 20.054688 23.277344 C 20.054688 19.964844 17.859375 17.160156 14.847656 16.234375 Z M 9.007812 12.921875 L 9.007812 12.691406 C 9.007812 11.039062 10.351562 9.699219 12 9.699219 C 13.648438 9.699219 14.992188 11.039062 14.992188 12.691406 L 14.992188 12.921875 C 14.992188 14.570312 13.648438 15.914062 12 15.914062 C 10.351562 15.914062 9.007812 14.570312 9.007812 12.921875 Z M 5.367188 22.585938 C 5.710938 19.609375 8.242188 17.292969 11.308594 17.292969 L 12.691406 17.292969 C 15.757812 17.292969 18.289062 19.609375 18.632812 22.585938 Z M 5.367188 22.585938 "/>
<path style="stroke:none;fill-rule:nonzero;fill:currentColor;fill-opacity:1;" d="M 15.679688 2.707031 C 15.613281 2.496094 15.445312 2.328125 15.234375 2.261719 L 13.574219 1.738281 L 12.5625 0.324219 C 12.433594 0.140625 12.222656 0.03125 12 0.03125 C 11.777344 0.03125 11.566406 0.140625 11.4375 0.324219 L 10.425781 1.738281 L 8.765625 2.261719 C 8.554688 2.328125 8.386719 2.496094 8.320312 2.707031 C 8.25 2.921875 8.289062 3.152344 8.421875 3.332031 L 9.457031 4.730469 L 9.441406 6.472656 C 9.4375 6.695312 9.542969 6.90625 9.726562 7.035156 C 9.84375 7.121094 9.988281 7.167969 10.128906 7.167969 C 10.203125 7.167969 10.277344 7.15625 10.351562 7.132812 L 12 6.578125 L 13.652344 7.132812 C 13.863281 7.203125 14.09375 7.167969 14.273438 7.035156 C 14.457031 6.90625 14.5625 6.695312 14.558594 6.472656 L 14.542969 4.730469 L 15.578125 3.332031 C 15.710938 3.152344 15.75 2.921875 15.679688 2.707031 Z M 13.296875 4.09375 C 13.207031 4.214844 13.160156 4.363281 13.160156 4.511719 L 13.171875 5.515625 L 12.21875 5.195312 C 12.148438 5.171875 12.074219 5.160156 12 5.160156 C 11.925781 5.160156 11.851562 5.171875 11.78125 5.195312 L 10.828125 5.515625 L 10.839844 4.511719 C 10.839844 4.363281 10.792969 4.214844 10.703125 4.09375 L 10.105469 3.289062 L 11.0625 2.988281 C 11.207031 2.941406 11.332031 2.851562 11.417969 2.730469 L 12 1.914062 L 12.582031 2.730469 C 12.667969 2.851562 12.792969 2.941406 12.9375 2.988281 L 13.894531 3.289062 Z M 13.296875 4.09375 "/>
<path style="stroke:none;fill-rule:nonzero;fill:currentColor;fill-opacity:1;" d="M 23.964844 4.777344 C 23.898438 4.566406 23.730469 4.402344 23.515625 4.335938 L 21.855469 3.8125 L 20.847656 2.394531 C 20.71875 2.210938 20.507812 2.105469 20.285156 2.105469 C 20.0625 2.105469 19.851562 2.210938 19.722656 2.394531 L 18.710938 3.8125 L 17.050781 4.335938 C 16.839844 4.402344 16.671875 4.566406 16.601562 4.777344 C 16.535156 4.992188 16.570312 5.222656 16.703125 5.402344 L 17.738281 6.800781 L 17.726562 8.542969 C 17.722656 8.765625 17.828125 8.976562 18.007812 9.105469 C 18.191406 9.238281 18.421875 9.273438 18.632812 9.203125 L 20.285156 8.652344 L 21.933594 9.203125 C 22.007812 9.226562 22.082031 9.238281 22.152344 9.238281 C 22.296875 9.238281 22.441406 9.195312 22.558594 9.105469 C 22.742188 8.976562 22.847656 8.765625 22.84375 8.542969 L 22.828125 6.800781 L 23.863281 5.402344 C 23.996094 5.222656 24.035156 4.992188 23.964844 4.777344 Z M 21.582031 6.167969 C 21.492188 6.289062 21.445312 6.433594 21.445312 6.582031 L 21.457031 7.585938 L 20.503906 7.269531 C 20.433594 7.246094 20.359375 7.234375 20.285156 7.234375 C 20.210938 7.234375 20.136719 7.246094 20.066406 7.269531 L 19.113281 7.585938 L 19.121094 6.582031 C 19.125 6.433594 19.078125 6.289062 18.988281 6.167969 L 18.390625 5.359375 L 19.347656 5.058594 C 19.492188 5.011719 19.613281 4.921875 19.703125 4.800781 L 20.285156 3.984375 L 20.867188 4.800781 C 20.953125 4.921875 21.078125 5.011719 21.222656 5.058594 L 22.179688 5.359375 Z M 21.582031 6.167969 "/>
<path style="stroke:none;fill-rule:nonzero;fill:currentColor;fill-opacity:1;" d="M 7.398438 4.777344 C 7.328125 4.566406 7.160156 4.402344 6.949219 4.335938 L 5.289062 3.8125 L 4.277344 2.394531 C 4.148438 2.210938 3.9375 2.105469 3.714844 2.105469 C 3.492188 2.105469 3.28125 2.210938 3.152344 2.394531 L 2.144531 3.8125 L 0.484375 4.335938 C 0.269531 4.402344 0.101562 4.566406 0.0351562 4.777344 C -0.0351562 4.992188 0.00390625 5.222656 0.136719 5.402344 L 1.171875 6.800781 L 1.15625 8.542969 C 1.152344 8.765625 1.257812 8.976562 1.441406 9.105469 C 1.621094 9.238281 1.851562 9.273438 2.066406 9.203125 L 3.714844 8.652344 L 5.367188 9.203125 C 5.4375 9.226562 5.511719 9.238281 5.585938 9.238281 C 5.730469 9.238281 5.871094 9.195312 5.992188 9.105469 C 6.171875 8.976562 6.277344 8.765625 6.273438 8.542969 L 6.261719 6.800781 L 7.296875 5.402344 C 7.429688 5.222656 7.464844 4.992188 7.398438 4.777344 Z M 5.011719 6.167969 C 4.921875 6.289062 4.875 6.433594 4.878906 6.582031 L 4.886719 7.585938 L 3.933594 7.269531 C 3.863281 7.246094 3.789062 7.234375 3.714844 7.234375 C 3.640625 7.234375 3.566406 7.246094 3.496094 7.269531 L 2.542969 7.585938 L 2.554688 6.582031 C 2.554688 6.433594 2.507812 6.289062 2.417969 6.167969 L 1.820312 5.359375 L 2.777344 5.058594 C 2.921875 5.011719 3.046875 4.921875 3.132812 4.800781 L 3.714844 3.984375 L 4.296875 4.800781 C 4.386719 4.921875 4.507812 5.011719 4.652344 5.058594 L 5.609375 5.359375 Z M 5.011719 6.167969 "/>
</g>
</svg>
