<?xml version="1.0" encoding="UTF-8"?>
<svg xmlns="http://www.w3.org/2000/svg" width="24pt" height="24pt" viewBox="0 0 24 24">
<g id="map-surface-1">
<path style="stroke:none;fill-rule:nonzero;fill:currentColor;fill-opacity:1;" d="M 9.75 5.8125 C 9.128906 5.8125 8.625 5.308594 8.625 4.6875 C 8.625 4.066406 9.128906 3.5625 9.75 3.5625 C 10.371094 3.5625 10.875 4.066406 10.875 4.6875 C 10.875 5.308594 10.371094 5.8125 9.75 5.8125 Z M 9.75 5.8125 "/>
<path style="stroke:none;fill-rule:nonzero;fill:currentColor;fill-opacity:1;" d="M 23.976562 20.585938 L 22.148438 8.398438 C 21.988281 7.335938 21.089844 6.5625 20.015625 6.5625 L 13.050781 6.5625 C 13.664062 5.402344 13.652344 4.039062 13.011719 2.878906 C 12.363281 1.703125 11.191406 0.976562 9.871094 0.9375 C 9.789062 0.9375 9.710938 0.9375 9.628906 0.9375 C 8.308594 0.976562 7.136719 1.703125 6.488281 2.878906 C 5.847656 4.039062 5.835938 5.402344 6.449219 6.5625 L 3.984375 6.5625 C 2.910156 6.5625 2.011719 7.335938 1.851562 8.398438 L 0.0234375 20.585938 C -0.0703125 21.207031 0.113281 21.835938 0.523438 22.3125 C 0.933594 22.789062 1.527344 23.0625 2.15625 23.0625 L 21.84375 23.0625 C 22.472656 23.0625 23.066406 22.789062 23.476562 22.3125 C 23.886719 21.835938 24.070312 21.207031 23.976562 20.585938 Z M 7.800781 3.601562 C 8.195312 2.886719 8.878906 2.460938 9.671875 2.4375 C 9.699219 2.4375 9.722656 2.4375 9.75 2.4375 C 9.777344 2.4375 9.800781 2.4375 9.824219 2.4375 C 10.621094 2.460938 11.304688 2.886719 11.699219 3.601562 C 12.113281 4.347656 12.101562 5.234375 11.667969 5.964844 L 9.75 9.195312 L 7.832031 5.964844 C 7.398438 5.234375 7.386719 4.351562 7.800781 3.601562 Z M 22.339844 21.335938 C 22.265625 21.417969 22.105469 21.5625 21.84375 21.5625 L 8.253906 21.5625 C 8.289062 21.210938 8.453125 20.683594 9.066406 20.34375 C 9.429688 20.144531 9.5625 19.691406 9.363281 19.328125 C 9.164062 18.964844 8.710938 18.832031 8.347656 19.03125 C 7.550781 19.464844 7.027344 20.148438 6.832031 21.007812 C 6.785156 21.210938 6.765625 21.398438 6.753906 21.5625 L 2.15625 21.5625 C 1.894531 21.5625 1.734375 21.417969 1.660156 21.335938 C 1.585938 21.25 1.46875 21.066406 1.507812 20.808594 L 3.335938 8.621094 C 3.382812 8.296875 3.65625 8.0625 3.984375 8.0625 L 7.332031 8.0625 L 8.789062 10.511719 C 8.992188 10.855469 9.351562 11.0625 9.75 11.0625 C 10.148438 11.0625 10.507812 10.855469 10.710938 10.511719 L 12.167969 8.0625 L 20.015625 8.0625 C 20.34375 8.0625 20.617188 8.296875 20.664062 8.621094 L 22.492188 20.808594 C 22.53125 21.066406 22.414062 21.25 22.339844 21.335938 Z M 22.339844 21.335938 "/>
<path style="stroke:none;fill-rule:nonzero;fill:currentColor;fill-opacity:1;" d="M 12.988281 10.351562 C 12.59375 10.21875 12.167969 10.433594 12.039062 10.824219 C 11.90625 11.21875 12.121094 11.644531 12.511719 11.773438 C 12.519531 11.777344 13.289062 12.050781 13.539062 12.800781 C 13.644531 13.113281 13.9375 13.3125 14.25 13.3125 C 14.328125 13.3125 14.410156 13.300781 14.488281 13.273438 C 14.878906 13.144531 15.09375 12.71875 14.960938 12.324219 C 14.472656 10.863281 13.046875 10.371094 12.988281 10.351562 Z M 12.988281 10.351562 "/>
<path style="stroke:none;fill-rule:nonzero;fill:currentColor;fill-opacity:1;" d="M 13.625 15.074219 C 13.234375 14.9375 12.804688 15.140625 12.667969 15.53125 C 12.242188 16.730469 10.792969 17.246094 10.761719 17.257812 C 10.371094 17.390625 10.160156 17.8125 10.289062 18.207031 C 10.394531 18.519531 10.6875 18.71875 11 18.71875 C 11.078125 18.71875 11.160156 18.707031 11.238281 18.679688 C 11.328125 18.648438 13.410156 17.9375 14.082031 16.03125 C 14.21875 15.640625 14.015625 15.210938 13.625 15.074219 Z M 13.625 15.074219 "/>
</g>
</svg>
