<?xml version="1.0" encoding="UTF-8"?>
<svg xmlns="http://www.w3.org/2000/svg" width="24pt" height="24pt" viewBox="0 0 24 24">
<g id="surface1">
<path style=" stroke:none;fill-rule:nonzero;fill:currentColor;fill-opacity:1;" d="M 21.121094 18.75 L 21.121094 18.957031 C 21.121094 21.253906 17.035156 23.113281 12 23.113281 C 6.964844 23.113281 2.878906 21.253906 2.878906 18.957031 C 2.878906 18.9375 2.878906 18.917969 2.882812 18.898438 L 2.882812 18.753906 C 3.414062 19.378906 4.203125 19.941406 5.21875 20.40625 C 7.042969 21.238281 9.453125 21.695312 12 21.695312 C 14.546875 21.695312 16.957031 21.238281 18.78125 20.40625 C 19.800781 19.941406 20.589844 19.378906 21.121094 18.75 "/>
<path style=" stroke:none;fill-rule:nonzero;fill:currentColor;fill-opacity:1;" d="M 21.121094 16.734375 C 21.121094 19.03125 17.035156 20.894531 12 20.894531 C 6.964844 20.894531 2.878906 19.03125 2.878906 16.734375 C 2.878906 15 5.210938 13.511719 8.519531 12.890625 L 8.519531 17.535156 L 15.480469 17.535156 L 15.480469 12.890625 C 18.789062 13.511719 21.121094 15 21.121094 16.734375 "/>
<path style=" stroke:none;fill-rule:nonzero;fill:currentColor;fill-opacity:1;" d="M 18.101562 11.453125 L 14.679688 11.453125 L 14.679688 16.734375 L 9.320312 16.734375 L 9.320312 11.453125 L 5.898438 11.453125 L 12 0.886719 Z M 18.101562 11.453125 "/>
</g>
</svg>
